<?xml version="1.0" encoding="utf-8"?>
<!-- Generator: Adobe Illustrator 21.1.0, SVG Export Plug-In . SVG Version: 6.00 Build 0)  -->
<svg version="1.1" id="Warstwa_1" xmlns="http://www.w3.org/2000/svg" xmlns:xlink="http://www.w3.org/1999/xlink" x="0px" y="0px"
	 viewBox="0 0 385.7 207.4" style="enable-background:new 0 0 385.7 207.4;" xml:space="preserve">
<style type="text/css">
	.st0{fill-rule:evenodd;clip-rule:evenodd;}
	.st1{fill-rule:evenodd;clip-rule:evenodd;fill:#FFFFFF;}
</style>
<path class="st0" d="M348.5,25.2c0,2.6,0,5.1,0,7.7c5.8,5.8,11.7,11.7,17.5,17.5c0,6,0,12,0,18c-8.2,8.2-16.5,16.5-24.7,24.7
	c-0.2-0.2-0.5-0.5-0.7-0.7c-8.3-8.3-16.6-16.6-25-25c0-8,0-16,0-24c2.5,0.8,4.3,3.8,6,5.5c6.4,6.4,12.8,12.8,19.2,19.2
	c0.1,0,0.2,0,0.2,0c0-8.6,0-17.1,0-25.7c-5.8-5.8-11.7-11.5-17.5-17.3c8.2-8.3,16.3-16.6,24.5-25c0.1,0,0.2,0,0.2,0
	c0.2,0,0.3,0,0.5,0c8.2,8.2,16.3,16.5,24.5,24.7c0,0.1,0,0.2,0,0.2C365,25.2,356.7,25.2,348.5,25.2z"/>
<path class="st0" d="M37.4,6.2c0,16.8,0,33.6,0,50.4c4.2,4.1,8.3,8.2,12.5,12.2c1.8-1.7,3.5-3.4,5.3-5c6,0.1,12,0.2,18,0.2
	c0,5.9,0,11.8,0,17.8c-20.3,0-40.6,0-61,0c0.1-25.2,0.2-50.4,0.2-75.6C20.8,6.2,29.1,6.2,37.4,6.2z"/>
<path class="st0" d="M217.7,10.6c23.8,0,47.5,0,71.3,0c-0.1,11.7-0.2,23.4-0.2,35c-5.2-5.1-10.4-10.2-15.6-15.4
	c-0.6-0.6-1.1-1.3-1.7-1.9c-3,0-6.1,0-9.1,0c0,17.8,0,35.7,0,53.5c-6.1-0.1-12.2-0.2-18.2-0.2c0-17.8,0-35.5,0-53.3
	c-2.9,0-5.8,0-8.6,0c-1.9,2.5-15.5,16.5-17.8,17.3C217.7,33.9,217.7,22.2,217.7,10.6z"/>
<path class="st0" d="M132,37.2c3.6-0.1,17.6-0.9,17.5,1.4c0,5.5,0,11,0,16.6c-5.8,0-11.5,0-17.3,0c0,1.4,0,2.7,0,4.1
	c1.8,1.7,3.5,3.4,5.3,5c11.7,0,23.4,0,35,0c0,5.9,0,11.8,0,17.8c-17.8,0-35.5,0-53.3,0c0.1-23.8,0.2-47.5,0.2-71.3
	c17.6,0,35.2,0,52.8,0c-5.8,5.8-11.7,11.7-17.5,17.5c-6.1,0.1-12.2,0.2-18.2,0.2c-1.5,1.7-3,3.4-4.6,5C132,34.8,132,36,132,37.2z"/>
<path class="st0" d="M373,85.2c4.2,4.2,8.5,8.3,12.7,12.5c0,25.3,0,50.6,0,75.8c-4.1,4-8.2,8-12.2,12c-4.2-4.2-8.5-8.3-12.7-12.5
	c0-16.8,0-33.6,0-50.4c0.3-5.1-1.7-22.4,0.2-25.2C365,93.4,369,89.3,373,85.2z"/>
<path class="st0" d="M196.1,117.8c2.9,2.4,9.9,26.7,12,32.2c1.8,5,3.7,9.9,5.5,14.9c2.2,1,4.3,1.9,6.5,2.9
	c4.1,11.1,8.2,22.2,12.2,33.4c-5.5,2.1-11,4.2-16.6,6.2c-6.1-16.6-12.2-33.3-18.2-49.9c-0.2,0.1-0.3,0.2-0.5,0.2
	c-2.2,5.3-4.5,10.6-6.7,15.8c4.9,2.4,9.8,4.8,14.6,7.2c0,0.1,0,0.2,0,0.2c-7.5,2.7-15,5.4-22.6,8.2c-2.6,5.4-5.1,10.9-7.7,16.3
	c-5.3-2.4-10.6-4.8-15.8-7.2C171.3,171.4,183.7,144.6,196.1,117.8z"/>
<path class="st0" d="M0.5,193c-0.1-23.8-0.2-47.7-0.2-71.5c11.8,0,23.7,0,35.5,0c5.8,5.9,11.7,11.8,17.5,17.8c0,6,0,12,0,18
	c-5.8,5.8-11.7,11.7-17.5,17.5c-5.8,0.1-11.7,0.2-17.5,0.2c-0.1,6-0.2,12-0.2,18C12.2,193,6.3,193,0.5,193z"/>
<path class="st0" d="M103,122.6c0,16.8,0,33.6,0,50.4c4.2,4.1,8.3,8.2,12.5,12.2c1.8-1.7,3.5-3.4,5.3-5c5.9,0,11.8,0,17.8,0
	c0,5.9,0,11.8,0,17.8c-20.2,0-40.5,0-60.7,0c0.1-25.1,0.2-50.2,0.2-75.4C86.3,122.6,94.6,122.6,103,122.6z"/>
<path class="st0" d="M275.5,127.2c0,5.7,0,11.4,0,17c6,0,12,0,18,0c5.7-5.7,11.4-11.4,17-17c5.9,0.1,11.8,0.2,17.8,0.2
	c-0.8,0.9-1.6,1.8-2.4,2.6c-8.5,8.4-17,16.8-25.4,25.2c0,16.7,0,33.4,0,50.2c-8.4-0.1-16.8-0.2-25.2-0.2
	c-0.1-14.4-0.2-28.8-0.2-43.2c-11.5-11.6-23-23.2-34.6-34.8c0-0.1,0-0.2,0-0.2C252.2,127,263.8,127.1,275.5,127.2z"/>
<path class="st1" d="M18,139.4c-0.1,6-0.2,12-0.2,18c6,0,12,0,18,0c0-6,0-12,0-18C29.8,139.4,23.9,139.4,18,139.4z"/>
<path class="st0" d="M364.3,186.2c5.9,0.1,11.8,0.2,17.8,0.2c0,5.7,0,11.4,0,17c-5.9,0.1-11.8,0.2-17.8,0.2
	c-0.1-0.1-0.2-0.2-0.2-0.2C364.2,197.8,364.2,192,364.3,186.2z"/>
</svg>
